ply
format ascii 1.0
comment Created by Blender 2.66 (sub 1) - www.blender.org, source file: ''
element vertex 26
property float x
property float y
property float z
property float nx
property float ny
property float nz
property uchar red
property uchar green
property uchar blue
element face 12
property list uchar uint vertex_indices
end_header
1.000000 1.000000 -1.000000 0.000000 0.000000 -1.000000 235 254 0
1.000000 -1.000000 -1.000000 0.000000 0.000000 -1.000000 234 254 0
-1.000000 -1.000000 -1.000000 0.000000 0.000000 -1.000000 234 254 0
1.000000 0.999999 1.000000 -0.000000 -0.000000 1.000000 255 89 0
-1.000000 1.000000 1.000000 -0.000000 -0.000000 1.000000 255 89 0
0.999999 -1.000001 1.000000 -0.000000 -0.000000 1.000000 255 88 0
1.000000 1.000000 -1.000000 1.000000 0.000000 -0.000000 9 254 107
1.000000 0.999999 1.000000 1.000000 0.000000 -0.000000 9 254 111
1.000000 -1.000000 -1.000000 1.000000 0.000000 -0.000000 20 220 131
1.000000 -1.000000 -1.000000 -0.000000 -1.000000 -0.000000 249 3 149
0.999999 -1.000001 1.000000 -0.000000 -1.000000 -0.000000 241 9 147
-1.000000 -1.000000 -1.000000 -0.000000 -1.000000 -0.000000 196 52 139
-1.000000 -1.000000 -1.000000 -1.000000 0.000000 -0.000000 255 255 255
-1.000000 -1.000000 1.000000 -1.000000 0.000000 -0.000000 255 255 255
-1.000000 1.000000 1.000000 -1.000000 0.000000 -0.000000 255 255 255
1.000000 0.999999 1.000000 0.000000 1.000000 0.000000 255 0 55
1.000000 1.000000 -1.000000 0.000000 1.000000 0.000000 255 0 55
-1.000000 1.000000 -1.000000 0.000000 1.000000 0.000000 255 16 67
-1.000000 1.000000 -1.000000 0.000000 0.000000 -1.000000 235 254 0
1.000000 0.999999 1.000000 1.000000 -0.000001 0.000000 9 254 111
0.999999 -1.000001 1.000000 1.000000 -0.000001 0.000000 0 247 118
1.000000 -1.000000 -1.000000 1.000000 -0.000001 0.000000 20 220 131
-1.000000 -1.000000 1.000000 -0.000000 -1.000000 0.000000 222 29 144
-1.000000 1.000000 -1.000000 -1.000000 0.000000 -0.000000 255 255 255
-1.000000 1.000000 1.000000 0.000000 1.000000 0.000000 255 34 81
-1.000000 -1.000000 1.000000 0.000000 -0.000000 1.000000 254 89 0
3 0 1 2
3 3 4 5
3 6 7 8
3 9 10 11
3 12 13 14
3 15 16 17
3 18 0 2
3 19 20 21
3 10 22 11
3 23 12 14
3 24 15 17
3 4 25 5
